<?xml version="1.0" encoding="utf-8"?>
<!-- Generator: Adobe Illustrator 26.0.1, SVG Export Plug-In . SVG Version: 6.00 Build 0)  -->
<svg version="1.1" xmlns="http://www.w3.org/2000/svg" xmlns:xlink="http://www.w3.org/1999/xlink" x="0px" y="0px"
	 width="392.25504px" height="246px" viewBox="0 0 392.25504 246" style="enable-background:new 0 0 392.25504 246;"
	 xml:space="preserve">
<style type="text/css">
	.st0{fill:#304947;}
	.st1{fill:none;stroke:#6AE497;stroke-width:0.495;stroke-linecap:round;stroke-miterlimit:10;}
	.st2{fill:#0DE78D;}
	.st3{fill:#FFFFFF;}
</style>
<g id="Calque_3">
	<rect class="st0" width="392.25504" height="246"/>
</g>
<g id="Calque_1">
	<g transform="translate(-5877.489 -7385.133)">
		<path class="st1" d="M6020.74512,7463.4917"/>
		<path class="st1" d="M6051.6499,7463.4917"/>
		<path class="st1" d="M6085.46973,7463.4917"/>
		<path class="st2" d="M6143.90381,7572.6958H6003.3291c-8.57275-0.01025-15.51953-6.95703-15.52979-15.52979v-112.39307
			c0.01025-8.57275,6.95703-15.51953,15.52979-15.52979h140.57422c8.57275,0.01025,15.51953,6.95703,15.52979,15.52979v112.39307
			C6159.42285,7565.73877,6152.47656,7572.68555,6143.90381,7572.6958z M6003.3291,7432.15967
			c-6.9624,0.00781-12.60498,5.65039-12.61279,12.61279v112.39307c0.00781,6.9624,5.65039,12.60498,12.61279,12.61279h140.57422
			c6.9624-0.00781,12.60498-5.65039,12.61279-12.61279v-112.39258c-0.00781-6.9624-5.65039-12.60498-12.61279-12.61279
			L6003.3291,7432.15967z"/>
		<path class="st2" d="M6031.44873,7543.20996l28.12695-84.38086h28.12695l28.12646,84.38086l-28.12695-0.1001l-14.3291-56.15479
			l-13.7998,56.15479L6031.44873,7543.20996z"/>
		<path class="st2" d="M6158.06787,7502.47705c-0.80518,0-1.45801-0.65283-1.45801-1.45801s0.65283-1.45801,1.45801-1.45801
			c38.01221-0.04297,68.81641-30.84766,68.85889-68.85986c0-0.80566,0.65283-1.4585,1.4585-1.4585s1.4585,0.65283,1.4585,1.4585
			C6229.79834,7470.32324,6197.68994,7502.43164,6158.06787,7502.47705z"/>
		<path class="st2" d="M5919.07715,7572.6958c-0.80566-0.00049-1.4585-0.65332-1.45898-1.45898
			c0.05957-39.56152,32.07568-71.63916,71.63721-71.7749l0,0c0.80566,0,1.4585,0.65283,1.4585,1.4585s-0.65283,1.4585-1.4585,1.4585
			l0,0c-37.9541,0.12939-68.66992,30.90332-68.72705,68.85791C5920.52881,7572.03955,5919.87988,7572.69189,5919.07715,7572.6958z"
			/>
		<path class="st2" d="M6005.55176,7599.33496h-1.78223l3.5-14.01611h2l3.52393,14.01611h-1.86182l-2.68311-11.93408
			L6005.55176,7599.33496z"/>
		<path class="st3" d="M6028.22168,7585.31885h1.78223v12.47412h4.2251v1.54199h-6.00684L6028.22168,7585.31885z"/>
		<path class="st3" d="M6049.79102,7585.31885h6.12695v1.52197h-4.34521v4.44482h3.7998v1.521h-3.7998v5.00586h4.54492v1.52197
			h-6.32715L6049.79102,7585.31885z"/>
		<path class="st3" d="M6071.93994,7585.31885h2.84424c0.7832-0.02832,1.56104,0.14014,2.26221,0.49023
			c0.59326,0.31934,1.06738,0.82129,1.35205,1.43213c0.50439,1.21973,0.58887,2.57227,0.24023,3.84521
			c-0.12842,0.44336-0.33496,0.86035-0.60986,1.23096c-0.26611,0.35254-0.6001,0.64893-0.98193,0.87109l2.24316,6.14697h-1.98193
			l-1.86279-5.62598c-0.21924,0.02734-0.43945,0.04053-0.66016,0.04004h-1.02197v5.58594h-1.82178L6071.93994,7585.31885z
			 M6076.38574,7587.49072c-0.44385-0.45557-1.06543-0.69336-1.7002-0.6499h-0.9209v5.4458h0.9209
			c0.43799,0.0166,0.87256-0.08008,1.26221-0.27979c0.34473-0.20068,0.61279-0.51074,0.76123-0.88086
			c0.18994-0.49805,0.27832-1.0293,0.25977-1.56201C6077.03174,7588.8252,6076.82471,7588.08838,6076.38574,7587.49072z"/>
		<path class="st2" d="M6094.729,7585.31885h1.82178v14.01611h-1.82178V7585.31885z"/>
		<path class="st3" d="M6113.10498,7597.68311c-0.20312-0.42139-0.35742-0.86426-0.45996-1.3208
			c-0.12012-0.52686-0.20068-1.06152-0.24121-1.6001c-0.0459-0.58154-0.06934-1.19189-0.06982-1.83203v-1.2002
			c0-0.65381,0.02686-1.271,0.08105-1.85205c0.04639-0.53906,0.1333-1.07422,0.25977-1.6001
			c0.10938-0.45703,0.27002-0.90039,0.47998-1.3208c0.18652-0.37451,0.44092-0.71094,0.75098-0.99219
			c0.31396-0.27344,0.67725-0.48438,1.0708-0.62012c0.46436-0.15527,0.95215-0.22998,1.44189-0.22119
			c0.50293-0.00879,1.00342,0.06592,1.48193,0.22119c0.40283,0.13281,0.77441,0.34717,1.09082,0.62988
			c0.30859,0.2832,0.56006,0.62256,0.74121,1c0.20312,0.42139,0.35791,0.86426,0.46094,1.3208
			c0.11914,0.52686,0.19922,1.06152,0.24023,1.6001c0.04688,0.58154,0.06982,1.19238,0.06982,1.83203v1.2002
			c0,0.6543-0.02686,1.27148-0.08008,1.85205c-0.04688,0.53906-0.13379,1.07373-0.25977,1.6001
			c-0.10986,0.45703-0.27148,0.8999-0.48096,1.3208c-0.18506,0.375-0.43994,0.71143-0.75098,0.99121
			c-0.31299,0.27539-0.67676,0.48633-1.0708,0.62109c-0.46436,0.15527-0.95215,0.22998-1.44189,0.22119
			c-0.50293,0.00879-1.00342-0.06592-1.48193-0.22119c-0.40332-0.13281-0.77441-0.34717-1.09082-0.62988
			C6113.53857,7598.39893,6113.28711,7598.06006,6113.10498,7597.68311z M6115.39795,7586.96094
			c-0.30664,0.23486-0.54248,0.55029-0.68115,0.91113c-0.19629,0.50049-0.3208,1.02637-0.37012,1.56201
			c-0.0791,0.74805-0.11621,1.5-0.10986,2.25195v1.28223c-0.00635,0.75195,0.03076,1.50391,0.10986,2.25195
			c0.04932,0.53467,0.17041,1.06006,0.35986,1.56201c0.13232,0.36133,0.36523,0.67725,0.6709,0.91113
			c0.30615,0.2085,0.6709,0.31348,1.04102,0.2998c0.36377,0.01172,0.72168-0.09326,1.021-0.2998
			c0.30713-0.23438,0.54346-0.5498,0.68115-0.91113c0.19678-0.50049,0.32178-1.02637,0.37109-1.56201
			c0.0791-0.74805,0.11572-1.5,0.10986-2.25195v-1.28223c0.00586-0.75195-0.03076-1.50391-0.10986-2.25195
			c-0.0498-0.53467-0.17139-1.06006-0.36084-1.56201c-0.13232-0.36133-0.36475-0.67725-0.66992-0.91113
			c-0.30664-0.20801-0.67139-0.31299-1.04199-0.2998C6116.05518,7586.64941,6115.69727,7586.75439,6115.39795,7586.96094z"/>
		<path class="st3" d="M6136.28613,7585.31885h1.56201l4.4248,10.27197v-10.27197h1.68213v14.01611h-1.58203l-4.4248-10.27197
			v10.27197h-1.66211V7585.31885z"/>
	</g>
</g>
</svg>
